<?xml version="1.0" encoding="UTF-8" standalone="no"?>
<svg
   data-v-fde0c5aa=""
   viewBox="0 0 394 84.953735"
   class="font"
   version="1.1"
   id="svg2"
   width="394"
   height="84.953735"
   xmlns:xlink="http://www.w3.org/1999/xlink"
   xmlns="http://www.w3.org/2000/svg"
   xmlns:svg="http://www.w3.org/2000/svg">
  <!---->
  <defs
     data-v-fde0c5aa=""
     id="defs1">
    <linearGradient
       data-v-fde0c5aa=""
       gradientTransform="rotate(25)"
       id="linearGradient4"
       x1="0"
       y1="0"
       x2="1"
       y2="0">
      <stop
         data-v-fde0c5aa=""
         offset="0"
         stop-color="#0076DD"
         stop-opacity="1"
         id="stop3"
         style="stop-color:#0076dd;stop-opacity:1;" />
      <stop
         data-v-fde0c5aa=""
         offset="100%"
         stop-color="#E600E9"
         stop-opacity="1"
         id="stop4" />
    </linearGradient>
    <!---->
    <linearGradient
       xlink:href="#5e35f7a2-496a-4ce4-97a6-6c4c6c7065bd"
       id="linearGradient2"
       gradientTransform="scale(2.1118097,0.47352751)"
       x1="-0.10038783"
       y1="2.4919355"
       x2="29.169294"
       y2="2.4919355"
       gradientUnits="userSpaceOnUse" />
    <linearGradient
       xlink:href="#linearGradient4"
       id="linearGradient3"
       gradientTransform="scale(2.1118097,0.47352751)"
       x1="-0.10038783"
       y1="2.4919355"
       x2="29.169294"
       y2="2.4919355"
       gradientUnits="userSpaceOnUse" />
  </defs>
  <defs
     data-v-fde0c5aa=""
     id="defs2">
    <linearGradient
       data-v-fde0c5aa=""
       gradientTransform="rotate(25)"
       id="5e35f7a2-496a-4ce4-97a6-6c4c6c7065bd"
       x1="0"
       y1="0"
       x2="1"
       y2="0">
      <stop
         data-v-fde0c5aa=""
         offset="0%"
         stop-color="#0076DD"
         stop-opacity="1"
         id="stop1" />
      <stop
         data-v-fde0c5aa=""
         offset="100%"
         stop-color="#E600E9"
         stop-opacity="1"
         id="stop2" />
    </linearGradient>
  </defs>
  <g
     data-v-fde0c5aa=""
     id="ae989226-9b5c-4053-bf8b-1c3762b4113c"
     fill="url(#5e35f7a2-496a-4ce4-97a6-6c4c6c7065bd)"
     transform="matrix(6.3741668,0,0,6.1294189,1.3513234,-7.232719)"
     style="fill:url(#linearGradient3)">
    <path
       d="m 8.99,7.27 v 0 q -0.2,0.7 -0.3,0.89 v 0 Q 8.53,8.51 7.91,9.3 v 0 Q 7.59,9.69 6.15,10.79 v 0 Q 4.58,12 4.19,12 v 0 q -0.1,0 -0.61,-0.52 v 0 q -0.72,1.36 -1.2,1.95 v 0 q -0.92,1.1 -2.24,1.61 v 0 q 1.34,-1.88 1.55,-2.65 v 0 L 2,11.23 Q 1.93,11.2 1.68,11.2 v 0 q -0.48,0 -0.95,0.08 v 0 q -0.16,0.03 -0.45,0.19 v 0 q -0.34,0.18 -0.46,0.22 v 0 q -0.04,-0.04 -0.03,-0.13 v 0 q 0.11,-0.42 1.33,-1.21 v 0 Q 2.07,9.73 2.41,9.59 v 0 Q 2.39,9.56 2.53,9 2.67,8.44 2.67,8.43 v 0 Q 2.63,8.33 2.65,8.27 v 0 L 2.98,7.04 Q 2.62,6.64 2.46,6.43 v 0 q 0,0 -0.44,0.26 v 0 Q 1.76,6.83 1.61,6.79 v 0 Q 1.67,6.48 2.81,5.47 3.96,4.45 4.4,4.45 v 0 q 0.05,0 0.42,0.41 0.37,0.4 0.37,0.6 v 0 Q 5.78,5.03 6.37,4.61 v 0 Q 7.1,4.12 7.45,4.12 v 0 q 0.88,0 1.31,0.65 v 0 q 0.35,0.56 0.35,1.45 v 0 q 0,0.54 -0.12,1.05 z m -2.2,1.58 v 0 q 0.17,-0.6 0.17,-1 v 0 q 0,-0.54 -0.37,-1.37 v 0 Q 6.57,6.43 6.08,6.15 5.6,5.88 5.46,5.88 v 0 Q 5.29,5.88 5.1,6.1 v 0 Q 4.96,6.29 4.93,6.4 v 0 Q 4.91,6.44 4.91,6.58 4.9,6.72 4.89,6.76 v 0 L 4.59,7.9 q 0.03,0.02 0.03,0.14 v 0 L 4.24,9.44 Q 5.5,9.38 6.23,10.09 v 0 Q 6.58,9.63 6.79,8.85 Z m 7.69,-7 H 14.7 Q 14.28,2.52 13.2,3.3 12.12,4.09 11.66,4.03 v 0 Q 11.51,3.74 11.21,3.25 v 0 q -0.5,0.32 -0.68,0.32 v 0 Q 10.5,3.51 10.51,3.43 v 0 Q 10.63,3.02 11.89,2.1 13.15,1.18 13.47,1.18 v 0 q 0.14,0 0.38,0.35 v 0 Q 13.99,1.76 14.14,2 v 0 q 0.1,-0.04 0.34,-0.15 z m -1.75,7.49 v 0 q -0.19,0.68 -1.47,1.98 -1.29,1.29 -1.81,1.28 v 0 H 9.28 q 0.17,-0.29 0.59,-0.8 v 0 q 0.31,-0.36 0.38,-0.66 v 0 q 0.01,-0.04 0.03,-0.23 0.01,-0.19 0.02,-0.24 v 0 l 0.58,-2.14 q 0.11,-0.42 0.11,-0.86 v 0 q 0,-0.74 -0.39,-0.74 v 0 q -0.04,0 -0.24,0.12 -0.2,0.12 -0.24,0.12 v 0 H 9.87 q 0.35,-0.65 1.61,-1.54 v 0 q 1.18,-0.84 1.51,-0.81 v 0 q 0.23,0.14 0.49,0.47 v 0 q 0.03,0.13 0.03,0.3 v 0 q 0,0.54 -0.13,1.05 v 0 L 12.81,8.76 Q 12.8,8.79 12.78,9.04 12.75,9.28 12.73,9.34 Z M 29.29,4.4 v 0 q -1.7,2.32 -4.12,2.32 v 0 q -0.25,0 -1.48,-0.27 v 0 q 0.05,0.54 0.99,0.77 v 0 q 0.84,0.2 1.68,0.4 v 0 q 0.9,0.33 0.9,1.1 v 0 q 0,0.23 -0.07,0.51 v 0 q -0.17,0.64 -2.03,2 v 0 q -1.74,1.27 -2.05,1.27 v 0 q 0.06,0 -0.75,-0.36 -0.81,-0.35 -1.49,-0.35 v 0 q -0.53,0 -1.21,0.15 v 0 q -0.34,0.09 -0.69,0.17 v 0 q 1.09,-1.34 2.18,-1.86 v 0 q 0.83,-0.39 1.98,-0.39 v 0 q 0.31,0 0.82,0.14 v 0 q 0.61,0.15 0.82,0.18 v 0 Q 24.39,9.58 23.41,9.34 v 0 Q 22.62,9.17 21.85,9 V 9 Q 21.11,8.75 21.11,8.05 v 0 q 0,-0.27 0.09,-0.59 v 0 q 0.15,-0.59 1.7,-1.99 v 0 q 1.61,-1.44 2.24,-1.44 v 0 q -0.02,0 0.73,0.38 0.76,0.38 1.58,0.38 v 0 q 0.48,0 0.98,-0.16 v 0 Q 29.11,4.42 29.29,4.4 Z m 6.68,0.74 0.18,0.05 Q 35.92,5.73 34.83,6.5 33.74,7.28 33.04,7.43 v 0 l -0.46,1.74 q -0.04,0.18 -0.39,0.85 v 0 q -0.72,1.38 -1.25,2.05 v 0 q -1.02,1.31 -2.37,1.78 v 0 q 0.12,-0.13 0.83,-1.38 v 0 q 0.77,-1.34 0.85,-1.68 v 0 L 31.22,7.21 Q 30.91,7 30.49,7 v 0 q -0.45,0 -1.52,0.52 v 0 L 28.8,7.46 Q 28.99,7 30.02,6.26 v 0 q 0.89,-0.65 1.65,-1 v 0 L 32.05,3.84 Q 32.06,3.78 31.83,3.48 31.6,3.18 31.56,3.18 v 0 q -0.03,0 -0.21,0.08 -0.17,0.09 -0.33,0.06 v 0 q 0.2,-0.34 1.19,-1.19 v 0 q 1.11,-0.95 1.53,-0.95 v 0 q 0.08,0 0.69,0.82 v 0 l -0.75,2.76 q -0.04,0.17 -0.04,0.29 v 0 q 0,0.35 0.32,0.45 v 0 q 0.17,0.04 0.66,0.04 v 0 q 0.41,0 0.52,-0.02 0.11,-0.03 0.83,-0.38 z m 8.17,5.3 v 0 q -0.19,0.33 -1.24,1.24 v 0 q -1.17,1 -1.57,1 v 0 q -0.06,0 -0.53,-0.58 -0.48,-0.59 -0.45,-0.82 v 0 q -0.49,0.48 -1.53,0.94 -1.03,0.46 -1.55,0.46 v 0 q -0.72,0 -1.12,-0.56 v 0 Q 35.8,11.65 35.8,10.96 v 0 q 0,-0.26 0.07,-0.5 v 0 Q 36.34,8.64 38.5,6.72 v 0 q 1.92,-1.71 3.32,-2.07 v 0 q 0.04,-0.02 0.22,-0.1 0.18,-0.08 0.24,-0.08 v 0 q -0.03,0 0.32,0.28 0.34,0.29 0.81,0.29 v 0 q 0.52,0 0.76,-0.11 0.24,-0.1 0.46,-0.07 v 0 q -0.05,0.33 -0.91,0.99 v 0 L 43.4,7.04 q 0,0.14 -0.01,0.38 v 0 L 42.8,9.59 q 0.26,0.35 0.81,0.99 v 0 q 0.41,-0.16 0.53,-0.14 z m -3.53,-0.05 v 0 l 0.27,-1.02 q 0,-0.14 0.03,-0.38 v 0 L 41.43,7.07 Q 41.38,7.06 40.87,7.06 v 0 q -0.26,0 -0.58,-0.27 v 0 Q 40.08,6.59 39.87,6.4 v 0 q -0.49,0.22 -0.98,1.02 v 0 q -0.42,0.67 -0.57,1.25 v 0 Q 38.26,8.86 38.26,9.1 v 0 q 0,0.63 0.31,1.08 v 0 q 0.35,0.53 0.99,0.53 v 0 q 0.31,0 1.05,-0.32 z M 54.57,4.54 h 0.23 q -0.52,0.84 -1.7,1.65 v 0 q -1.23,0.84 -2.03,0.84 v 0 q -0.57,0 -0.84,-0.11 v 0 Q 49.87,6.75 49.71,6.27 v 0 q -0.29,0.17 -0.56,0.39 v 0 l -0.92,3.45 q 0.06,0.05 0.25,0.43 0.18,0.37 0.17,0.38 v 0 q -0.13,0.46 -1.26,1.25 v 0 q -0.99,0.68 -1.27,0.74 v 0 q -0.24,-0.53 -0.48,-0.84 v 0 L 46.58,8.6 Q 46.55,8.53 46.55,8.39 v 0 L 46.94,6.9 Q 46.34,6.23 46.3,6.23 v 0 q -0.02,0 -0.65,0.32 v 0 L 45.46,6.5 Q 45.65,6.16 46.8,5.19 v 0 q 1.3,-1.1 1.82,-1.1 v 0 q 0.1,0 0.45,0.35 v 0 q 0.22,0.24 0.45,0.46 v 0 q -0.09,0.31 -0.21,0.97 v 0 Q 50.76,4.68 52.19,4 v 0 q 0.1,0.58 0.42,0.8 v 0 q 0.28,0.17 0.86,0.17 v 0 q 0.26,0 1.1,-0.43 z m 6.85,0.6 0.18,0.05 Q 61.38,5.73 60.28,6.5 59.19,7.28 58.49,7.43 v 0 l -0.46,1.74 q -0.04,0.18 -0.39,0.85 v 0 q -0.72,1.38 -1.25,2.05 v 0 q -1.02,1.31 -2.36,1.78 v 0 q 0.11,-0.13 0.82,-1.38 v 0 q 0.77,-1.34 0.86,-1.68 v 0 L 56.67,7.21 Q 56.36,7 55.94,7 V 7 Q 55.5,7 54.42,7.52 v 0 L 54.25,7.46 Q 54.45,7 55.47,6.26 v 0 q 0.89,-0.65 1.65,-1 v 0 L 57.5,3.84 Q 57.51,3.78 57.28,3.48 57.05,3.18 57.01,3.18 v 0 q -0.03,0 -0.21,0.08 -0.17,0.09 -0.32,0.06 v 0 q 0.19,-0.34 1.19,-1.19 v 0 q 1.1,-0.95 1.52,-0.95 v 0 q 0.09,0 0.69,0.82 v 0 l -0.74,2.76 q -0.05,0.17 -0.05,0.29 v 0 q 0,0.35 0.33,0.45 v 0 q 0.16,0.04 0.65,0.04 v 0 q 0.41,0 0.52,-0.02 0.11,-0.03 0.83,-0.38 z"
       id="path2"
       style="fill:url(#linearGradient2)" />
  </g>
  <!---->
  <!---->
</svg>
